<svg width="1200" height="223" viewBox="0 0 1200 223" fill="none" xmlns="http://www.w3.org/2000/svg">
<path fill-rule="evenodd" clip-rule="evenodd" d="M0 144L50 162C100 180 200 216 300 222C400 228 500 204 600 168C700 132 800 84 900 72C1000 60 1100 84 1150 96L1200 108V1.52588e-05H1150C1100 1.52588e-05 1000 1.52588e-05 900 1.52588e-05C800 1.52588e-05 700 1.52588e-05 600 1.52588e-05C500 1.52588e-05 400 1.52588e-05 300 1.52588e-05C200 1.52588e-05 100 1.52588e-05 50 1.52588e-05H0V144Z" fill="#53CFA6"/>
</svg>
